<?xml version="1.0" encoding="UTF-8"?>
<svg width="500px" height="100px" viewBox="0 0 500 100" version="1.1" xmlns="http://www.w3.org/2000/svg" xmlns:xlink="http://www.w3.org/1999/xlink">
    <title>Bricks and Pixels Logo</title>
    <g id="bricks-pixels-logo">
        <path d="M61.03,36.88 C61.03,40.18 59.53,43.18 57.49,45.34 C61.57,47.5 64.03,51.4 64.03,56.56 C64.03,67.96 56.47,73 42.67,73 L33.13,73 C32.23,73 31.87,72.7 31.87,71.74 L31.87,28.84 C31.87,27.7 32.17,27.4 33.31,27.4 L48.85,27.4 C57.79,27.4 61.03,31.9 61.03,36.88 Z M45.19,50.68 C44.65,50.68 44.35,50.98 44.35,51.46 L44.35,61.84 C44.35,62.26 44.47,62.62 45.13,62.62 C49.69,62.62 51.01,59.38 51.01,56.26 C51.01,53.62 49.75,51.1 46.75,50.74 C45.97,50.68 45.49,50.68 45.19,50.68 Z M45.31,42.58 L46.39,42.58 C47.83,42.58 48.55,42.64 48.91,42.7 C49.45,41.68 49.75,40.48 49.75,39.4 C49.75,38.08 48.97,37.24 46.99,37.24 L45.31,37.24 C44.71,37.24 44.47,37.36 44.47,38.02 L44.47,41.68 C44.47,42.4 44.71,42.58 45.31,42.58 Z M69.55,27.4 L79.93,27.4 C89.41,27.4 99.49,32.2 99.49,44.14 C99.49,51.82 95.59,57.1 91.33,60.52 C91.09,60.76 90.91,60.94 90.91,61.12 C90.91,61.24 91.09,61.42 91.33,61.54 L98.77,66.22 C99.43,66.64 99.67,67.18 99.67,67.84 L99.67,71.56 C99.67,72.28 99.43,73 98.41,73 L89.89,73 C89.05,73 88.63,72.82 88.09,72.4 L81.19,67.24 C80.89,67 80.71,66.94 80.53,66.94 C80.35,66.94 80.23,67.06 80.05,67.36 L78.55,71.98 C78.25,72.76 77.53,73 76.99,73 L69.37,73 C68.83,73 68.05,72.94 68.05,71.68 L68.05,29.14 C68.05,27.7 68.41,27.4 69.55,27.4 Z M81.19,37.24 C80.83,37.24 80.71,37.36 80.71,37.72 L80.71,54.22 C80.71,54.58 80.89,54.76 81.07,54.88 L81.61,55.24 C81.73,55.3 81.85,55.36 82.03,55.36 C82.03,55.36 82.21,55.36 82.33,55.24 C85.33,51.94 86.29,48.4 86.29,45.04 C86.29,39.1 83.59,37.24 81.19,37.24 Z M117.55,28.96 C117.55,27.88 117.07,27.4 115.99,27.4 L106.03,27.4 C105.01,27.4 104.59,27.7 104.59,28.9 L104.59,71.5 C104.59,72.4 104.65,73 106.03,73 L116.17,73 C117.25,73 117.55,72.4 117.55,71.5 L117.55,28.96 Z M135.01,46.12 C135.01,39.94 137.89,37 142.45,37 C144.13,37 146.41,37.36 148.09,38.02 C148.39,38.14 148.75,38.26 149.05,38.26 C149.41,38.26 149.65,38.02 149.83,37.48 L152.23,30.82 C152.29,30.58 152.35,30.4 152.35,30.22 C152.35,29.92 152.17,29.62 151.87,29.5 C148.81,27.76 144.19,26.62 139.87,26.62 C129.91,26.62 121.63,33.04 121.63,45.22 C121.63,60.7 134.05,70.24 149.77,72.88 C150.07,72.94 150.67,73 150.85,73 C151.27,73 151.51,72.7 151.51,72.1 L151.51,65.08 C151.51,64.48 151.45,64.18 150.85,63.94 C143.17,61.36 135.01,56.32 135.01,46.12 Z M158.17,27.4 C156.85,27.4 156.49,27.88 156.49,29.08 L156.49,71.68 C156.49,72.7 156.73,73 157.81,73 L166.51,73 C167.53,73 167.71,72.64 167.89,71.68 L169.09,63.94 C169.15,63.46 169.27,63.22 169.45,63.22 C169.75,63.22 169.93,63.34 170.17,63.64 L177.73,71.86 C178.57,72.88 179.17,73 180.19,73 L188.17,73 C188.89,73 189.25,72.7 189.25,71.8 L189.25,68.02 C189.25,67.12 189.01,66.7 188.71,66.34 L175.39,52.06 C175.21,51.88 175.09,51.58 175.09,51.34 C175.09,51.16 175.15,50.98 175.27,50.8 L189.91,28.96 C190.15,28.6 190.21,28.3 190.21,28.06 C190.21,27.7 189.91,27.4 189.31,27.4 L178.93,27.4 C178.03,27.4 177.49,27.58 176.95,28.48 L170.23,39.28 C170.05,39.58 169.81,39.76 169.63,39.76 C169.33,39.76 169.15,39.46 169.15,39.04 L169.15,28.84 C169.15,27.7 168.55,27.4 167.65,27.4 L158.17,27.4 Z M204.97,73 C214.45,73 218.65,67.96 218.65,61.84 C218.65,59.68 217.93,56.62 215.77,53.26 L208.03,41.44 C207.31,40.36 206.77,39.52 206.77,38.74 C206.77,37.54 207.73,37.36 208.99,37.36 L215.11,37.36 C215.89,37.36 216.43,37 216.61,36.4 L219.07,28.84 C219.13,28.66 219.13,28.48 219.13,28.3 C219.13,27.76 218.83,27.4 218.05,27.4 L205.81,27.4 C198.13,27.4 193.63,31.6 193.63,37.84 C193.63,40.6 195.07,43.72 197.23,47.02 L203.71,56.92 C204.43,58.06 204.91,59.02 204.91,59.86 C204.91,61.78 203.41,62.38 202.03,62.38 L195.55,62.38 C194.53,62.38 193.99,62.74 193.75,63.4 L191.11,71.5 C191.05,71.68 190.99,71.86 190.99,72.04 C190.99,72.64 191.35,73 192.19,73 L204.97,73 Z M266.77,51.22 L272.35,56.26 C272.77,56.62 272.95,56.98 272.95,57.4 C272.95,57.82 272.77,58.18 272.47,58.54 L270.61,60.52 C270.25,60.94 270.19,61.24 270.61,61.54 L275.17,65.62 C275.53,65.92 275.65,66.34 275.65,66.58 C275.65,66.88 275.53,67.18 275.29,67.42 L269.77,73.24 C269.53,73.54 269.23,73.6 268.93,73.6 C268.63,73.6 268.27,73.48 267.85,73.12 L263.35,69.16 C263.11,68.92 262.75,68.56 262.09,69.1 C257.41,73 252.25,73.78 248.29,73.78 C238.69,73.78 233.35,68.62 233.35,61.78 C233.35,56.98 235.75,52.84 240.13,49.42 C240.43,49.18 240.55,48.94 240.55,48.7 C240.55,48.46 240.43,48.28 240.25,48.1 C236.53,44.32 235.03,41.62 235.03,37 C235.03,35.5 235.33,32.8 236.11,30.04 C236.53,28.66 237.31,27.4 239.35,27.4 L261.61,27.4 C263.23,27.4 263.89,28.3 264.31,29.56 C265.15,31.9 265.57,34.18 265.57,36.4 C265.57,40.3 264.79,44.14 259.75,48.16 L258.25,49.3 C257.89,49.6 257.89,50.02 258.25,50.32 L261.67,53.5 C262.09,53.86 262.39,53.8 262.81,53.38 L264.79,51.4 C265.15,51.04 265.51,50.86 265.87,50.86 C266.23,50.86 266.53,50.98 266.77,51.22 Z M249.97,63.34 C251.23,63.34 252.67,62.86 254.05,61.66 C254.41,61.3 254.41,61.06 254.11,60.82 L249.85,56.8 C249.55,56.56 249.31,56.44 248.89,56.8 C247.33,58.18 246.79,59.38 246.79,60.52 C246.79,62.56 248.47,63.34 249.97,63.34 Z M246.85,38.08 C246.85,39.16 247.21,40 249.31,41.98 C249.67,42.28 249.97,42.4 250.45,42.04 C252.49,40.6 253.81,39.58 253.81,38.02 C253.81,37.18 253.51,37 252.91,37 L247.81,37 C247.15,37 246.85,37.12 246.85,38.08 Z M289.75,71.62 L289.75,28.9 C289.75,27.88 289.99,27.4 291.19,27.4 L300.85,27.4 C314.41,27.4 321.19,34.24 321.19,44.14 C321.19,57.1 310.39,63.16 303.55,65.26 C303.13,65.32 302.53,65.5 302.41,66.04 L301.45,71.74 C301.33,72.46 301.09,73 300.19,73 L291.07,73 C290.17,73 289.75,72.7 289.75,71.62 Z M302.41,37.96 L302.41,54.1 C302.41,54.46 302.53,54.7 302.83,54.7 C304.27,54.7 307.99,51.7 307.99,44.74 C307.99,39.28 305.41,37.24 303.01,37.24 C302.53,37.24 302.41,37.48 302.41,37.96 Z M338.11,28.96 C338.11,27.88 337.63,27.4 336.55,27.4 L326.59,27.4 C325.57,27.4 325.15,27.7 325.15,28.9 L325.15,71.5 C325.15,72.4 325.21,73 326.59,73 L336.73,73 C337.81,73 338.11,72.4 338.11,71.5 L338.11,28.96 Z M374.17,48.64 C376.69,46.6 377.17,43.78 377.17,40.96 L377.17,28.84 C377.17,27.76 376.75,27.4 375.73,27.4 L365.71,27.4 C364.57,27.4 364.27,27.82 364.27,28.9 L364.27,40.72 C364.27,42.04 363.91,43.24 363.19,44.02 C362.17,43.9 361.09,43.84 360.13,43.84 C357.67,43.84 356.95,42.22 356.95,39.7 L356.95,28.6 C356.95,27.88 356.47,27.4 355.63,27.4 L345.49,27.4 C344.47,27.4 344.11,27.76 344.11,28.84 L344.11,41.74 C344.11,44.62 345.07,47.44 347.05,49.6 C347.29,49.84 347.41,50.14 347.05,50.44 C344.83,52.18 344.11,54.82 344.11,57.4 L344.11,71.56 C344.11,72.64 344.47,73 345.49,73 L355.57,73 C356.65,73 356.95,72.58 356.95,71.5 L356.95,58.48 C356.95,57.16 357.31,56.02 358.03,55.24 L360.13,55.24 C363.55,55.24 364.33,57.16 364.33,59.5 L364.33,71.5 C364.33,72.58 364.69,73 365.71,73 L375.79,73 C376.87,73 377.17,72.52 377.17,71.5 L377.17,57.22 C377.17,54.34 376.33,51.7 374.17,49.48 C373.81,49.12 373.93,48.82 374.17,48.64 Z M396.37,62.38 C395.83,62.38 395.71,62.02 395.71,61.6 L396.67,50.5 C396.67,50.14 396.91,49.96 397.21,49.96 L405.55,49.96 C406.09,49.96 406.33,49.72 406.39,49.36 L406.57,47.14 C406.69,45.82 406.93,43.36 406.93,42.94 C406.93,42.4 406.57,42.22 406.15,42.22 L397.33,42.22 C396.97,42.22 396.79,41.98 396.73,41.68 L396.49,39.94 C396.37,39.34 396.25,38.2 396.25,38.02 C396.25,37.6 396.49,37.36 396.91,37.36 L410.05,37.36 C410.95,37.36 411.25,36.76 411.25,36.16 L411.25,28.66 C411.25,27.88 410.95,27.4 410.11,27.4 L384.55,27.4 C383.53,27.4 383.11,27.7 383.11,28.9 L383.11,71.5 C383.11,72.4 383.17,73 384.55,73 L407.71,73 C408.61,73 409.21,72.64 409.45,71.98 L411.07,67 C411.55,65.38 412.15,63.76 412.15,63.34 C412.15,62.8 411.85,62.38 411.07,62.38 L396.37,62.38 Z M437.41,73 C438.31,73 438.91,72.7 439.15,71.98 L441.73,63.88 C441.79,63.7 441.85,63.52 441.85,63.34 C441.85,62.8 441.49,62.38 440.65,62.38 L429.79,62.38 C429.37,62.38 429.01,62.32 429.01,61.48 L429.01,28.96 C429.01,27.88 428.53,27.4 427.45,27.4 L417.61,27.4 C416.59,27.4 416.17,27.7 416.17,28.9 L416.17,71.5 C416.17,72.4 416.23,73 417.61,73 L437.41,73 Z M456.19,73 C465.67,73 469.87,67.96 469.87,61.84 C469.87,59.68 469.15,56.62 466.99,53.26 L459.25,41.44 C458.53,40.36 457.99,39.52 457.99,38.74 C457.99,37.54 458.95,37.36 460.21,37.36 L466.33,37.36 C467.11,37.36 467.65,37 467.83,36.4 L470.29,28.84 C470.35,28.66 470.35,28.48 470.35,28.3 C470.35,27.76 470.05,27.4 469.27,27.4 L457.03,27.4 C449.35,27.4 444.85,31.6 444.85,37.84 C444.85,40.6 446.29,43.72 448.45,47.02 L454.93,56.92 C455.65,58.06 456.13,59.02 456.13,59.86 C456.13,61.78 454.63,62.38 453.25,62.38 L446.77,62.38 C445.75,62.38 445.21,62.74 444.97,63.4 L442.33,71.5 C442.27,71.68 442.21,71.86 442.21,72.04 C442.21,72.64 442.57,73 443.41,73 L456.19,73 Z" id="bricks-pixel-logo-path"></path>
    </g>
</svg>
