<svg width="210" height="60" viewBox="0 0 210 60" xmlns="http://www.w3.org/2000/svg" xmlns:xlink="http://www.w3.org/1999/xlink"><title>Amsterdam crosses</title><defs><path d="M42.772 30.294l12.479-12.478L42.772 5.337 30.294 17.816 17.816 5.337 5.337 17.816l12.479 12.478L5.337 42.772l12.479 12.479 12.478-12.479 12.478 12.479 12.479-12.479-12.479-12.478z" id="path-1"/><mask id="mask-2" x="-3" y="-3" width="55.913" height="55.913"><path fill="#fff" d="M2.337 2.337H58.25V58.25H2.337z"/><use xlink:href="#path-1"/></mask><path d="M117.478 30.294l12.479-12.478-12.479-12.479L105 17.816 92.522 5.337 80.043 17.816l12.479 12.478-12.479 12.478 12.479 12.479L105 42.772l12.478 12.479 12.479-12.479-12.479-12.478z" id="path-3"/><mask id="mask-4" x="-3" y="-3" width="55.913" height="55.913"><path fill="#fff" d="M77.043 2.337h55.913V58.25H77.043z"/><use xlink:href="#path-3"/></mask><path d="M192.184 30.294l12.479-12.478-12.479-12.479-12.478 12.479-12.478-12.479-12.479 12.479 12.479 12.478-12.479 12.478 12.479 12.479 12.478-12.479 12.478 12.479 12.479-12.479-12.479-12.478z" id="path-5"/><mask id="mask-6" x="-3" y="-3" width="55.913" height="55.913"><path fill="#fff" d="M151.749 2.337h55.913V58.25h-55.913z"/><use xlink:href="#path-5"/></mask></defs><style>[id=cross] .crosses-color{fill:#fdd;fill-rule:evenodd}[id=cross] .crosses-stroke{stroke:#fff}</style><g id="Page-1" stroke-width="3" fill="none" fill-rule="evenodd"><g id="Amsterdam-crosses" fill-rule="nonzero"><g id="cross"><use class="crosses-color" xlink:href="#path-1"/><use class="crosses-stroke" mask="url(#mask-2)" stroke-width="15" xlink:href="#path-1"/></g><g id="cross"><use class="crosses-color" xlink:href="#path-3"/><use class="crosses-stroke" mask="url(#mask-4)" stroke-width="15" xlink:href="#path-3"/></g><g id="cross"><use class="crosses-color" xlink:href="#path-5"/><use class="crosses-stroke" mask="url(#mask-6)" stroke-width="15" xlink:href="#path-5"/></g></g></g></svg>