<svg width="500" height="100" viewBox="0 0 500 100" xmlns="http://www.w3.org/2000/svg"><title>Bricks and Pixels Logo</title><g id="bricks-pixels-logo"><path d="M61.03 36.88c0 3.3-1.5 6.3-3.54 8.46 4.08 2.16 6.54 6.06 6.54 11.22 0 11.4-7.56 16.44-21.36 16.44h-9.54c-.9 0-1.26-.3-1.26-1.26v-42.9c0-1.14.3-1.44 1.44-1.44h15.54c8.94 0 12.18 4.5 12.18 9.48zm-15.84 13.8c-.54 0-.84.3-.84.78v10.38c0 .42.12.78.78.78 4.56 0 5.88-3.24 5.88-6.36 0-2.64-1.26-5.16-4.26-5.52-.78-.06-1.26-.06-1.56-.06zm.12-8.1h1.08c1.44 0 2.16.06 2.52.12.54-1.02.84-2.22.84-3.3 0-1.32-.78-2.16-2.76-2.16h-1.68c-.6 0-.84.12-.84.78v3.66c0 .72.24.9.84.9zM69.55 27.4h10.38c9.48 0 19.56 4.8 19.56 16.74 0 7.68-3.9 12.96-8.16 16.38-.24.24-.42.42-.42.6 0 .12.18.3.42.42l7.44 4.68c.66.42.9.96.9 1.62v3.72c0 .72-.24 1.44-1.26 1.44h-8.52c-.84 0-1.26-.18-1.8-.6l-6.9-5.16c-.3-.24-.48-.3-.66-.3-.18 0-.3.12-.48.42l-1.5 4.62c-.3.78-1.02 1.02-1.56 1.02h-7.62c-.54 0-1.32-.06-1.32-1.32V29.14c0-1.44.36-1.74 1.5-1.74zm11.64 9.84c-.36 0-.48.12-.48.48v16.5c0 .36.18.54.36.66l.54.36c.12.06.24.12.42.12 0 0 .18 0 .3-.12 3-3.3 3.96-6.84 3.96-10.2 0-5.94-2.7-7.8-5.1-7.8zm36.36-8.28c0-1.08-.48-1.56-1.56-1.56h-9.96c-1.02 0-1.44.3-1.44 1.5v42.6c0 .9.06 1.5 1.44 1.5h10.14c1.08 0 1.38-.6 1.38-1.5V28.96zm17.46 17.16c0-6.18 2.88-9.12 7.44-9.12 1.68 0 3.96.36 5.64 1.02.3.12.66.24.96.24.36 0 .6-.24.78-.78l2.4-6.66c.06-.24.12-.42.12-.6 0-.3-.18-.6-.48-.72-3.06-1.74-7.68-2.88-12-2.88-9.96 0-18.24 6.42-18.24 18.6 0 15.48 12.42 25.02 28.14 27.66.3.06.9.12 1.08.12.42 0 .66-.3.66-.9v-7.02c0-.6-.06-.9-.66-1.14-7.68-2.58-15.84-7.62-15.84-17.82zm23.16-18.72c-1.32 0-1.68.48-1.68 1.68v42.6c0 1.02.24 1.32 1.32 1.32h8.7c1.02 0 1.2-.36 1.38-1.32l1.2-7.74c.06-.48.18-.72.36-.72.3 0 .48.12.72.42l7.56 8.22c.84 1.02 1.44 1.14 2.46 1.14h7.98c.72 0 1.08-.3 1.08-1.2v-3.78c0-.9-.24-1.32-.54-1.68l-13.32-14.28c-.18-.18-.3-.48-.3-.72 0-.18.06-.36.18-.54l14.64-21.84c.24-.36.3-.66.3-.9 0-.36-.3-.66-.9-.66h-10.38c-.9 0-1.44.18-1.98 1.08l-6.72 10.8c-.18.3-.42.48-.6.48-.3 0-.48-.3-.48-.72v-10.2c0-1.14-.6-1.44-1.5-1.44h-9.48zm46.8 45.6c9.48 0 13.68-5.04 13.68-11.16 0-2.16-.72-5.22-2.88-8.58l-7.74-11.82c-.72-1.08-1.26-1.92-1.26-2.7 0-1.2.96-1.38 2.22-1.38h6.12c.78 0 1.32-.36 1.5-.96l2.46-7.56c.06-.18.06-.36.06-.54 0-.54-.3-.9-1.08-.9h-12.24c-7.68 0-12.18 4.2-12.18 10.44 0 2.76 1.44 5.88 3.6 9.18l6.48 9.9c.72 1.14 1.2 2.1 1.2 2.94 0 1.92-1.5 2.52-2.88 2.52h-6.48c-1.02 0-1.56.36-1.8 1.02l-2.64 8.1c-.06.18-.12.36-.12.54 0 .6.36.96 1.2.96h12.78zm61.8-21.78l5.58 5.04c.42.36.6.72.6 1.14 0 .42-.18.78-.48 1.14l-1.86 1.98c-.36.42-.42.72 0 1.02l4.56 4.08c.36.3.48.72.48.96 0 .3-.12.6-.36.84l-5.52 5.82c-.24.3-.54.36-.84.36-.3 0-.66-.12-1.08-.48l-4.5-3.96c-.24-.24-.6-.6-1.26-.06-4.68 3.9-9.84 4.68-13.8 4.68-9.6 0-14.94-5.16-14.94-12 0-4.8 2.4-8.94 6.78-12.36.3-.24.42-.48.42-.72s-.12-.42-.3-.6c-3.72-3.78-5.22-6.48-5.22-11.1 0-1.5.3-4.2 1.08-6.96.42-1.38 1.2-2.64 3.24-2.64h22.26c1.62 0 2.28.9 2.7 2.16.84 2.34 1.26 4.62 1.26 6.84 0 3.9-.78 7.74-5.82 11.76l-1.5 1.14c-.36.3-.36.72 0 1.02l3.42 3.18c.42.36.72.3 1.14-.12l1.98-1.98c.36-.36.72-.54 1.08-.54.36 0 .66.12.9.36zm-16.8 12.12c1.26 0 2.7-.48 4.08-1.68.36-.36.36-.6.06-.84l-4.26-4.02c-.3-.24-.54-.36-.96 0-1.56 1.38-2.1 2.58-2.1 3.72 0 2.04 1.68 2.82 3.18 2.82zm-3.12-25.26c0 1.08.36 1.92 2.46 3.9.36.3.66.42 1.14.06 2.04-1.44 3.36-2.46 3.36-4.02 0-.84-.3-1.02-.9-1.02h-5.1c-.66 0-.96.12-.96 1.08zm42.9 33.54V28.9c0-1.02.24-1.5 1.44-1.5h9.66c13.56 0 20.34 6.84 20.34 16.74 0 12.96-10.8 19.02-17.64 21.12-.42.06-1.02.24-1.14.78l-.96 5.7c-.12.72-.36 1.26-1.26 1.26h-9.12c-.9 0-1.32-.3-1.32-1.38zm12.66-33.66V54.1c0 .36.12.6.42.6 1.44 0 5.16-3 5.16-9.96 0-5.46-2.58-7.5-4.98-7.5-.48 0-.6.24-.6.72zm35.7-9c0-1.08-.48-1.56-1.56-1.56h-9.96c-1.02 0-1.44.3-1.44 1.5v42.6c0 .9.06 1.5 1.44 1.5h10.14c1.08 0 1.38-.6 1.38-1.5V28.96zm36.06 19.68c2.52-2.04 3-4.86 3-7.68V28.84c0-1.08-.42-1.44-1.44-1.44h-10.02c-1.14 0-1.44.42-1.44 1.5v11.82c0 1.32-.36 2.52-1.08 3.3-1.02-.12-2.1-.18-3.06-.18-2.46 0-3.18-1.62-3.18-4.14V28.6c0-.72-.48-1.2-1.32-1.2h-10.14c-1.02 0-1.38.36-1.38 1.44v12.9c0 2.88.96 5.7 2.94 7.86.24.24.36.54 0 .84-2.22 1.74-2.94 4.38-2.94 6.96v14.16c0 1.08.36 1.44 1.38 1.44h10.08c1.08 0 1.38-.42 1.38-1.5V58.48c0-1.32.36-2.46 1.08-3.24h2.1c3.42 0 4.2 1.92 4.2 4.26v12c0 1.08.36 1.5 1.38 1.5h10.08c1.08 0 1.38-.48 1.38-1.5V57.22c0-2.88-.84-5.52-3-7.74-.36-.36-.24-.66 0-.84zm22.2 13.74c-.54 0-.66-.36-.66-.78l.96-11.1c0-.36.24-.54.54-.54h8.34c.54 0 .78-.24.84-.6l.18-2.22c.12-1.32.36-3.78.36-4.2 0-.54-.36-.72-.78-.72h-8.82c-.36 0-.54-.24-.6-.54l-.24-1.74c-.12-.6-.24-1.74-.24-1.92 0-.42.24-.66.66-.66h13.14c.9 0 1.2-.6 1.2-1.2v-7.5c0-.78-.3-1.26-1.14-1.26h-25.56c-1.02 0-1.44.3-1.44 1.5v42.6c0 .9.06 1.5 1.44 1.5h23.16c.9 0 1.5-.36 1.74-1.02l1.62-4.98c.48-1.62 1.08-3.24 1.08-3.66 0-.54-.3-.96-1.08-.96h-14.7zM437.41 73c.9 0 1.5-.3 1.74-1.02l2.58-8.1c.06-.18.12-.36.12-.54 0-.54-.36-.96-1.2-.96h-10.86c-.42 0-.78-.06-.78-.9V28.96c0-1.08-.48-1.56-1.56-1.56h-9.84c-1.02 0-1.44.3-1.44 1.5v42.6c0 .9.06 1.5 1.44 1.5h19.8zm18.78 0c9.48 0 13.68-5.04 13.68-11.16 0-2.16-.72-5.22-2.88-8.58l-7.74-11.82c-.72-1.08-1.26-1.92-1.26-2.7 0-1.2.96-1.38 2.22-1.38h6.12c.78 0 1.32-.36 1.5-.96l2.46-7.56c.06-.18.06-.36.06-.54 0-.54-.3-.9-1.08-.9h-12.24c-7.68 0-12.18 4.2-12.18 10.44 0 2.76 1.44 5.88 3.6 9.18l6.48 9.9c.72 1.14 1.2 2.1 1.2 2.94 0 1.92-1.5 2.52-2.88 2.52h-6.48c-1.02 0-1.56.36-1.8 1.02l-2.64 8.1c-.06.18-.12.36-.12.54 0 .6.36.96 1.2.96h12.78z" id="bricks-pixel-logo-path"/></g></svg>